<svg xmlns="http://www.w3.org/2000/svg" viewBox="0 0 128 128" role="img" aria-labelledby="title">
  <title id="title">Clawasync blog icon</title>
  <rect width="128" height="128" rx="30" fill="#fbf8f2" />
  <path
    d="M88.5 34.5A40 40 0 1 0 88.5 93"
    fill="none"
    stroke="#134e4a"
    stroke-linecap="round"
    stroke-width="15"
  />
  <path
    d="M54 38h25l17 17v35a7 7 0 0 1-7 7H54a7 7 0 0 1-7-7V45a7 7 0 0 1 7-7Z"
    fill="#fffdfa"
    stroke="#1f1d1a"
    stroke-linejoin="round"
    stroke-width="5"
  />
  <path
    d="M79 39v16h16"
    fill="none"
    stroke="#1f1d1a"
    stroke-linecap="round"
    stroke-linejoin="round"
    stroke-width="5"
  />
  <path
    d="M59 67h27M59 80h19"
    fill="none"
    stroke="#0f766e"
    stroke-linecap="round"
    stroke-width="5"
  />
  <path
    d="M35 82c7 9 17 15 29 16"
    fill="none"
    stroke="#b45309"
    stroke-linecap="round"
    stroke-width="5"
  />
  <circle cx="34" cy="82" r="5" fill="#b45309" />
  <circle cx="64" cy="99" r="5" fill="#b45309" />
</svg>
